<svg xmlns="http://www.w3.org/2000/svg" width="900" height="700" viewBox="0 0 900 700"><defs><linearGradient id="bg" x1="0" y1="0" x2="1" y2="1"><stop stop-color="#0d3b2e"/><stop offset=".58" stop-color="#0b5d45"/><stop offset="1" stop-color="#f97316"/></linearGradient><pattern id="p" width="42" height="42" patternUnits="userSpaceOnUse"><path d="M42 0H0V42" fill="none" stroke="#fff" stroke-opacity=".09"/></pattern><filter id="s"><feDropShadow dx="0" dy="16" stdDeviation="18" flood-opacity=".25"/></filter></defs><rect width="900" height="700" rx="42" fill="url(#bg)"/><rect width="900" height="700" rx="42" fill="url(#p)"/><g fill="#fff" filter="url(#s)"><rect x="90" y="90" width="330" height="205" rx="28" fill-opacity=".96"/><rect x="470" y="140" width="330" height="205" rx="28" fill-opacity=".92"/><rect x="150" y="360" width="600" height="250" rx="30" fill-opacity=".94"/></g><g font-family="Arial,sans-serif"><text x="125" y="142" font-size="22" font-weight="700" fill="#0d3b2e">NĂNG LỰC SỐ</text><text x="125" y="184" font-size="54" font-weight="800" fill="#0d3b2e">06</text><text x="230" y="180" font-size="19" fill="#4b635b">dự án học tập</text><circle cx="145" cy="240" r="18" fill="#f97316"/><path d="M139 240l5 5 10-12" fill="none" stroke="#fff" stroke-width="5" stroke-linecap="round" stroke-linejoin="round"/><text x="180" y="248" font-size="18" fill="#4b635b">Từ dữ liệu đến AI có trách nhiệm</text><text x="505" y="192" font-size="22" font-weight="700" fill="#0d3b2e">QUY TRÌNH</text><text x="505" y="239" font-size="19" fill="#4b635b">Tìm hiểu → Thực hành</text><text x="505" y="273" font-size="19" fill="#4b635b">Đánh giá → Phản tư</text><text x="195" y="420" font-size="20" font-weight="700" fill="#0d3b2e">PORTFOLIO CÁ NHÂN</text><text x="195" y="486" font-size="45" font-weight="800" fill="#0d3b2e">Nguyễn Phương Danh</text><text x="195" y="530" font-size="21" fill="#4b635b">Nhập môn Công nghệ số &amp; Trí tuệ nhân tạo</text><rect x="195" y="555" width="265" height="34" rx="17" fill="#e8f6ef"/><text x="215" y="579" font-size="16" font-weight="700" fill="#0b5d45">UEB • VNU • 2025–2026</text></g></svg>